HIERARCHY
ROOT Hips
{
	OFFSET 0.00000 0.00000 0.00000
	CHANNELS 6 Xposition Yposition Zposition Zrotation Yrotation Xrotation 
	JOINT LHipJoint
	{
		OFFSET 0 0 0
		CHANNELS 3 Zrotation Yrotation Xrotation
		JOINT LeftUpLeg
		{
			OFFSET 1.36306 -1.79463 0.83929
			CHANNELS 3 Zrotation Yrotation Xrotation
			JOINT LeftLeg
			{
				OFFSET 2.44811 -6.72613 0.00000
				CHANNELS 3 Zrotation Yrotation Xrotation
				JOINT LeftFoot
				{
					OFFSET 2.56220 -7.03959 0.00000
					CHANNELS 3 Zrotation Yrotation Xrotation
					JOINT LeftToeBase
					{
						OFFSET 0.15764 -0.43311 2.32255
						CHANNELS 3 Zrotation Yrotation Xrotation
						End Site
						{
							OFFSET 0.00000 -0.00000 1.18966
						}
					}
				}
			}
		}
	}
	JOINT RHipJoint
	{
		OFFSET 0 0 0
		CHANNELS 3 Zrotation Yrotation Xrotation
		JOINT RightUpLeg
		{
			OFFSET -1.30552 -1.79463 0.83929
			CHANNELS 3 Zrotation Yrotation Xrotation
			JOINT RightLeg
			{
				OFFSET -2.54253 -6.98555 0.00000
				CHANNELS 3 Zrotation Yrotation Xrotation
				JOINT RightFoot
				{
					OFFSET -2.56826 -7.05623 0.00000
					CHANNELS 3 Zrotation Yrotation Xrotation
					JOINT RightToeBase
					{
						OFFSET -0.16473 -0.45259 2.36315
						CHANNELS 3 Zrotation Yrotation Xrotation
						End Site
						{
							OFFSET -0.00000 -0.00000 1.21082
						}
					}
				}
			}
		}
	}
	JOINT LowerBack
	{
		OFFSET 0 0 0
		CHANNELS 3 Zrotation Yrotation Xrotation
		JOINT Spine
		{
			OFFSET 0.02827 2.03559 -0.19338
			CHANNELS 3 Zrotation Yrotation Xrotation
			JOINT Spine1
			{
				OFFSET 0.05672 2.04885 -0.04275
				CHANNELS 3 Zrotation Yrotation Xrotation
				JOINT Neck
				{
					OFFSET 0 0 0
					CHANNELS 3 Zrotation Yrotation Xrotation
					JOINT Neck1
					{
						OFFSET -0.05417 1.74624 0.17202
						CHANNELS 3 Zrotation Yrotation Xrotation
						JOINT Head
						{
							OFFSET 0.10407 1.76136 -0.12397
							CHANNELS 3 Zrotation Yrotation Xrotation
							End Site
							{
								OFFSET 0.03720 1.77044 -0.06241
							}
						}
					}
				}
				JOINT LeftShoulder
				{
					OFFSET 0 0 0
					CHANNELS 3 Zrotation Yrotation Xrotation
					JOINT LeftArm
					{
						OFFSET 3.36241 1.20089 -0.31121
						CHANNELS 3 Zrotation Yrotation Xrotation
						JOINT LeftForeArm
						{
							OFFSET 4.98300 -0.00000 -0.00000
							CHANNELS 3 Zrotation Yrotation Xrotation
							JOINT LeftHand
							{
								OFFSET 3.48356 -0.00000 -0.00000
								CHANNELS 3 Zrotation Yrotation Xrotation
								JOINT LeftFingerBase
								{
									OFFSET 0 0 0
									CHANNELS 3 Zrotation Yrotation Xrotation
									JOINT LeftHandIndex1
									{
										OFFSET 0.71526 -0.00000 -0.00000
										CHANNELS 3 Zrotation Yrotation Xrotation
										End Site
										{
											OFFSET 0.57666 -0.00000 -0.00000
										}
									}
								}
								JOINT LThumb
								{
									OFFSET 0 0 0
									CHANNELS 3 Zrotation Yrotation Xrotation
									End Site
									{
										OFFSET 0.58547 -0.00000 0.58547
									}
								}
							}
						}
					}
				}
				JOINT RightShoulder
				{
					OFFSET 0 0 0
					CHANNELS 3 Zrotation Yrotation Xrotation
					JOINT RightArm
					{
						OFFSET -3.13660 1.37405 -0.40465
						CHANNELS 3 Zrotation Yrotation Xrotation
						JOINT RightForeArm
						{
							OFFSET -5.24190 -0.00000 -0.00000
							CHANNELS 3 Zrotation Yrotation Xrotation
							JOINT RightHand
							{
								OFFSET -3.44417 -0.00000 -0.00000
								CHANNELS 3 Zrotation Yrotation Xrotation
								JOINT RightFingerBase
								{
									OFFSET 0 0 0
									CHANNELS 3 Zrotation Yrotation Xrotation
									JOINT RightHandIndex1
									{
										OFFSET -0.62253 -0.00000 -0.00000
										CHANNELS 3 Zrotation Yrotation Xrotation
										End Site
										{
											OFFSET -0.50190 -0.00000 -0.00000
										}
									}
								}
								JOINT RThumb
								{
									OFFSET 0 0 0
									CHANNELS 3 Zrotation Yrotation Xrotation
									End Site
									{
										OFFSET -0.50956 -0.00000 0.50956
									}
								}
							}
						}
					}
				}
			}
		}
	}
}
MOTION
Frames: 7
Frame Time: 0.0333333
13.3271 31.7893 45.6724 0 0 0 0 0 0 -21 0 0 0 0 0 0 0 0 0 0 0 0 0 0 21 0 0 0 0 0 0 0 0 0 0 0 0 0 0 0 0 0 0 0 0 0 0 -16 0 0 21 0 0 11 0 0 0 -8 0 0 0 0 0 0 0 0 0 0 0 0 0 0 0 0 0 0 0 0 8 0 0 0 0 0 0 0 0 0 0 0 0 0 0 0 0 0
11.7316 18.3820 20.4118 -178.3980 -2.0100 174.3900 0.0000 0.0000 0.0000 -12.1306 3.4643 -0.5594 5.4462 13.8693 42.7164 0.3001 -0.4987 10.5396 1.3765 -7.4243 -20.9788 0.0000 0.0000 0.0000 26.5060 -3.0209 -12.9329 -4.5086 -12.8081 38.6543 0.1373 -6.5910 -3.1351 -0.8038 -5.7221 15.9802 2.9876 1.0098 13.5202 -0.2919 1.8010 -6.1752 -2.4640 0.4824 -14.4373 -5.2412 -5.9261 4.5635 11.9009 -7.8635 -8.9829 4.7161 -4.4217 -2.6987 -0.0000 0.0000 0.0000 85.5081 -38.0443 -92.6121 13.2015 -21.5817 -2.5269 -0.0000 -0.0000 4.5156 19.2292 -1.5866 -0.5533 -7.1250 0.0000 -0.0000 -5.6889 28.2827 2.3247 -0.0000 0.0000 0.0000 -71.2096 35.9788 -86.5559 -15.1631 24.3729 -3.2930 0.0000 0.0000 3.6537 -23.7697 -14.2416 6.1838 7.1250 -0.0000 -0.0000 3.4742 -45.4522 -0.0388
11.6753 18.3716 20.3762 -178.3260 -0.5857 174.3590 0.0000 0.0000 0.0000 -11.9311 1.5331 -0.0067 5.3936 13.8138 42.4966 0.3375 -3.3943 12.7563 1.7213 -8.2596 -23.5054 0.0000 0.0000 0.0000 26.3183 -3.1677 -12.8950 -4.5402 -12.8465 38.7967 0.0957 -5.5014 -2.5346 -1.0377 -6.4790 18.1807 3.1376 -0.0326 13.3573 1.5433 0.6354 -4.2442 -0.2245 0.1048 -12.1835 -9.4679 -5.1925 -2.7701 11.5135 -6.7635 -4.4697 4.9132 -3.4534 -0.1270 0.0000 -0.0000 0.0000 78.5328 -33.4346 -86.4248 13.4232 -21.9042 -2.6091 -0.0000 -0.0000 1.5437 21.8682 -2.4786 -0.9944 -7.1250 0.0000 -0.0000 -3.6247 27.3044 1.5610 0.0000 -0.0000 0.0000 -78.2828 33.9735 -91.7183 -15.3671 24.6550 -3.3776 0.0000 0.0000 2.2644 -24.6979 -13.9469 6.3253 7.1250 -0.0000 -0.0000 2.5626 -45.2527 -0.0160
11.6579 18.3550 20.3855 -179.3220 0.2655 174.3970 0.0000 0.0000 0.0000 -12.8657 0.3541 0.6038 5.2891 13.7022 42.0574 0.2284 -6.5862 13.7634 1.2914 -7.2004 -20.3106 0.0000 0.0000 0.0000 25.1526 -2.8840 -13.1965 -4.6754 -13.0087 39.4010 0.0744 -4.8571 -2.2894 -1.0898 -6.6345 18.6370 2.3467 -0.1266 14.4540 1.4152 0.5263 -4.4141 0.0983 0.1545 -13.0492 -9.9164 -5.0764 -2.6849 11.3111 -6.6604 -1.9580 4.8843 -3.3348 0.5894 -0.0000 -0.0000 0.0000 77.1384 -32.6490 -84.0449 13.5954 -22.1534 -2.6736 -0.0000 0.0000 -1.2504 23.3549 -4.2939 -1.8518 -7.1250 0.0000 -0.0000 -2.4769 25.3038 1.1816 -0.0000 -0.0000 0.0000 -78.9580 33.1826 -89.2964 -15.2029 24.4281 -3.3094 0.0000 -0.0000 -2.3769 -26.1949 -13.8202 6.7024 7.1250 -0.0000 -0.0000 1.1491 -45.3079 -0.0087
11.6617 18.3512 20.4092 -179.7240 0.5641 174.5060 0.0000 0.0000 0.0000 -13.1223 0.0781 0.4230 5.1766 13.5800 41.5804 0.1239 -8.7693 14.5812 1.6386 -8.0689 -22.9234 0.0000 0.0000 0.0000 24.5286 -3.6959 -14.0559 -4.7922 -13.1459 39.9170 0.0509 -3.9974 -1.5171 -0.9745 -6.2844 17.6119 1.7541 -0.3703 15.0450 1.4407 0.0828 -4.1637 0.5774 -0.0083 -13.1219 -9.3984 -5.0177 -2.5911 10.5819 -6.4263 -0.4515 4.5670 -3.0923 0.9504 0.0000 -0.0000 0.0000 76.7283 -30.9871 -85.6788 12.6264 -20.7374 -2.3193 -0.0000 -0.0000 3.2402 21.5280 -5.0792 -2.0002 -7.1250 0.0000 -0.0000 -3.8454 24.5226 1.9066 0.0000 -0.0000 0.0000 -80.1445 32.2436 -89.8132 -14.9925 24.1357 -3.2229 0.0000 -0.0000 -3.2691 -26.2636 -12.7678 6.2236 7.1250 -0.0000 -0.0000 0.9505 -44.1591 0.0197
11.6557 18.3421 20.4734 -179.0970 1.7266 174.7680 0.0000 0.0000 0.0000 -12.3506 0.9395 0.0832 5.1252 13.5234 41.3607 0.0800 -9.0229 14.2150 1.8022 -8.4412 -24.0625 0.0000 0.0000 0.0000 25.0774 -3.3116 -14.5932 -4.7675 -13.1171 39.8083 0.0358 -3.5588 -0.0350 -1.2470 -7.0802 19.9533 2.3609 -0.3307 15.5372 1.5964 0.3015 -4.0759 0.3507 0.0549 -13.3186 -8.9791 -4.8483 -2.6098 9.7869 -6.3550 1.7472 4.2326 -3.0668 1.5491 0.0000 -0.0000 0.0000 77.6330 -30.4629 -92.4516 11.8045 -19.5109 -2.0365 -0.0000 -0.0000 11.8173 19.2601 -6.1538 -2.1451 -7.1250 0.0000 -0.0000 -5.5178 23.4703 2.8766 0.0000 -0.0000 0.0000 -80.1232 31.5106 -88.7256 -15.2948 24.5551 -3.3475 0.0000 -0.0000 -5.9643 -27.3678 -12.1042 6.1949 7.1250 -0.0000 -0.0000 -0.1370 -43.5560 -0.0049
11.6645 18.3948 20.5697 -178.9840 2.0068 174.9360 0.0000 0.0000 0.0000 -12.3774 0.9467 -0.0646 5.1155 13.5127 41.3193 0.2302 -6.9210 14.1294 1.2002 -6.9508 -19.5698 0.0000 0.0000 0.0000 25.0537 -2.4287 -14.4272 -4.6200 -12.9427 39.1544 0.0342 -3.9579 0.9171 -1.2726 -7.1497 20.1596 2.6055 -0.3587 15.7767 1.4107 0.2764 -3.6613 0.0095 0.0133 -12.9808 -8.5767 -4.8052 -2.6379 9.5915 -6.3761 3.1540 4.0922 -3.0641 1.9507 0.0000 0.0000 0.0000 78.0808 -29.6949 -92.9195 11.8708 -19.6105 -2.0587 -0.0000 -0.0000 14.9640 18.1170 -6.6406 -2.1668 -7.1250 0.0000 -0.0000 -6.3507 23.0071 3.3835 0.0000 0.0000 0.0000 -79.5551 30.6034 -87.7719 -15.2504 24.4938 -3.3291 0.0000 -0.0000 -4.7437 -26.4920 -13.9261 6.8401 7.1250 -0.0000 -0.0000 0.8855 -45.4629 -0.0101
